<svg xmlns="http://www.w3.org/2000/svg" xmlns:svg="http://www.w3.org/2000/svg" id="svg11071" width="770" height="1580" version="1.1" viewBox="0 0 770 1580"><metadata id="metadata11076"/><g id="layer3" transform="matrix(-1,0,0,1,770.5,0)"><path style="fill:none;stroke:#f80;stroke-width:9" id="path11635" d="M 766,366 V 466"/><path style="fill:none;stroke:#888;stroke-width:9" id="path11637" d="M 766,768 V 568"/><g style="fill-rule:evenodd" id="g3764"><rect style="fill:#222" id="rect11633" width="767" height="1580" x="0" y="0" rx="80" ry="80"/></g><g style="fill:#fff;fill-rule:evenodd" id="g3769"><rect style="fill-opacity:.13332998" id="rect11707" width="220" height="15" x="273.5" y="1526" rx="5" ry="5"/><path style="fill-opacity:.86667002" id="path11722" d="M 70.36319,6.9493575 C 28.332124,5.755102 4.8083241,47.982906 4.8378685,83.222978 L 6.032124,1507.7128 c 0.025949,30.952 32.037776,68.2787 64.633409,68.2161 l 622.086167,-1.1942 c 30.87325,-0.059 68.21618,-37.2632 68.21618,-64.6334 V 76.057445 c 0,-31.282766 -24.68851,-66.7195765 -63.13681,-70.302343 C 456.89848,4.61017 269.72229,6.9493575 70.36319,6.9493575 Z"/></g></g></svg>