<svg xmlns="http://www.w3.org/2000/svg" id="svg11071" width="770" height="1580" version="1.1" viewBox="0 0 770 1580"><metadata id="metadata11076"/><g id="layer3"><path id="path11635" fill="none" stroke="#f80" stroke-width="9" d="m766 366v100"/><path id="path11637" fill="none" stroke="#888" stroke-width="9" d="m766 768v-200"/><g fill-rule="evenodd"><rect id="rect11633" width="767" height="1580" x="0" y="0" fill="#222" rx="80" ry="80"/><rect id="rect11061" width="80" height="18" x="343.5" y="80" fill="#fff" fill-opacity=".133" rx="5" ry="5"/><circle id="path11063" cx="459" cy="76.25" r="15" fill="#00f" fill-opacity=".267"/><circle id="path11069" cx="297.25" cy="74" r="17.5" fill="#00f" fill-opacity=".267"/></g><g fill="#fff" fill-rule="evenodd"><rect id="rect11705" width="50" height="25" x="358.5" y="34" fill-opacity=".133" rx="10" ry="10"/><rect id="rect11707" width="220" height="15" x="273.5" y="1526" fill-opacity=".133" rx="5" ry="5"/><path id="path11722" fill-opacity=".867" d="m83.5 38c-27.7 0-50 22.3-50 50v1360c0 16.62 13.38 30 30 30h640c16.62 0 30-13.38 30-30v-1360c0-27.7-22.3-50-50-50h-90-50c-19.39 0-35 15.61-35 35v4c0 24.93-20.07 45-45 45h-160c-24.93 0-45-20.07-45-45v-4c0-19.39-15.61-35-35-35h-70z"/></g></g></svg>